<svg xmlns="http://www.w3.org/2000/svg" xmlns:xlink="http://www.w3.org/1999/xlink" width="150" zoomAndPan="magnify" viewBox="0 0 112.5 37.5" height="50" preserveAspectRatio="xMidYMid meet" version="1.0"><defs><g/><clipPath id="ddfe66d37b"><path d="M 0.492188 0 L 111.511719 0 L 111.511719 37.007812 L 0.492188 37.007812 Z M 0.492188 0 " clip-rule="nonzero"/></clipPath></defs><g clip-path="url(#ddfe66d37b)"><path fill="#ffffff" d="M 0.492188 0 L 111.511719 0 L 111.511719 37.007812 L 0.492188 37.007812 Z M 0.492188 0 " fill-opacity="1" fill-rule="nonzero"/><path fill="#ffffff" d="M 0.492188 0 L 111.511719 0 L 111.511719 37.007812 L 0.492188 37.007812 Z M 0.492188 0 " fill-opacity="1" fill-rule="nonzero"/></g><g fill="#000000" fill-opacity="1"><g transform="translate(2.622946, 27.873197)"><g><path d="M 1.734375 0 L 1.734375 -19.890625 L 9.578125 -19.890625 C 11.835938 -19.890625 13.585938 -19.300781 14.828125 -18.125 C 16.078125 -16.945312 16.703125 -15.367188 16.703125 -13.390625 C 16.703125 -12.023438 16.398438 -10.859375 15.796875 -9.890625 C 15.191406 -8.929688 14.320312 -8.210938 13.1875 -7.734375 L 17.40625 0 L 12.765625 0 L 9 -7.046875 L 5.9375 -7.046875 L 5.9375 0 Z M 5.9375 -10.421875 L 8.78125 -10.421875 C 11.175781 -10.421875 12.375 -11.410156 12.375 -13.390625 C 12.375 -15.429688 11.171875 -16.453125 8.765625 -16.453125 L 5.9375 -16.453125 Z M 5.9375 -10.421875 "/></g></g></g><g fill="#000000" fill-opacity="1"><g transform="translate(20.563289, 27.873197)"><g><path d="M 8.453125 0.296875 C 6.921875 0.296875 5.597656 -0.015625 4.484375 -0.640625 C 3.378906 -1.265625 2.53125 -2.148438 1.9375 -3.296875 C 1.34375 -4.453125 1.046875 -5.816406 1.046875 -7.390625 C 1.046875 -8.921875 1.34375 -10.265625 1.9375 -11.421875 C 2.53125 -12.585938 3.367188 -13.492188 4.453125 -14.140625 C 5.546875 -14.785156 6.820312 -15.109375 8.28125 -15.109375 C 9.59375 -15.109375 10.773438 -14.828125 11.828125 -14.265625 C 12.890625 -13.710938 13.734375 -12.875 14.359375 -11.75 C 14.984375 -10.625 15.296875 -9.21875 15.296875 -7.53125 L 15.296875 -6.40625 L 5.140625 -6.40625 L 5.140625 -6.390625 C 5.140625 -5.273438 5.441406 -4.394531 6.046875 -3.75 C 6.660156 -3.113281 7.484375 -2.796875 8.515625 -2.796875 C 9.210938 -2.796875 9.8125 -2.941406 10.3125 -3.234375 C 10.8125 -3.523438 11.164062 -3.957031 11.375 -4.53125 L 15.203125 -4.265625 C 14.910156 -2.878906 14.171875 -1.769531 12.984375 -0.9375 C 11.804688 -0.113281 10.296875 0.296875 8.453125 0.296875 Z M 5.140625 -8.96875 L 11.40625 -8.96875 C 11.394531 -9.851562 11.109375 -10.582031 10.546875 -11.15625 C 9.984375 -11.726562 9.25 -12.015625 8.34375 -12.015625 C 7.425781 -12.015625 6.671875 -11.71875 6.078125 -11.125 C 5.492188 -10.53125 5.179688 -9.8125 5.140625 -8.96875 Z M 5.140625 -8.96875 "/></g></g></g><g fill="#000000" fill-opacity="1"><g transform="translate(36.901818, 27.873197)"><g><path d="M 8.390625 0.296875 C 6.859375 0.296875 5.546875 -0.0234375 4.453125 -0.671875 C 3.359375 -1.328125 2.515625 -2.234375 1.921875 -3.390625 C 1.335938 -4.554688 1.046875 -5.894531 1.046875 -7.40625 C 1.046875 -8.925781 1.34375 -10.265625 1.9375 -11.421875 C 2.53125 -12.578125 3.375 -13.476562 4.46875 -14.125 C 5.5625 -14.78125 6.863281 -15.109375 8.375 -15.109375 C 9.675781 -15.109375 10.816406 -14.867188 11.796875 -14.390625 C 12.773438 -13.921875 13.546875 -13.257812 14.109375 -12.40625 C 14.679688 -11.550781 14.992188 -10.550781 15.046875 -9.40625 L 11.140625 -9.40625 C 11.035156 -10.144531 10.75 -10.742188 10.28125 -11.203125 C 9.8125 -11.660156 9.195312 -11.890625 8.4375 -11.890625 C 7.476562 -11.890625 6.707031 -11.503906 6.125 -10.734375 C 5.539062 -9.960938 5.25 -8.867188 5.25 -7.453125 C 5.25 -6.035156 5.535156 -4.9375 6.109375 -4.15625 C 6.691406 -3.375 7.46875 -2.984375 8.4375 -2.984375 C 9.144531 -2.984375 9.742188 -3.195312 10.234375 -3.625 C 10.722656 -4.050781 11.023438 -4.664062 11.140625 -5.46875 L 15.046875 -5.46875 C 14.984375 -4.320312 14.675781 -3.316406 14.125 -2.453125 C 13.570312 -1.585938 12.804688 -0.910156 11.828125 -0.421875 C 10.859375 0.0546875 9.710938 0.296875 8.390625 0.296875 Z M 8.390625 0.296875 "/></g></g></g><g fill="#000000" fill-opacity="1"><g transform="translate(52.958811, 27.873197)"><g><path d="M 1.65625 0 L 1.65625 -14.921875 L 5.78125 -14.921875 L 5.78125 0 Z M 3.734375 -16.84375 C 3.117188 -16.84375 2.59375 -17.046875 2.15625 -17.453125 C 1.71875 -17.867188 1.5 -18.363281 1.5 -18.9375 C 1.5 -19.507812 1.71875 -20 2.15625 -20.40625 C 2.59375 -20.8125 3.117188 -21.015625 3.734375 -21.015625 C 4.347656 -21.015625 4.875 -20.8125 5.3125 -20.40625 C 5.75 -20 5.96875 -19.507812 5.96875 -18.9375 C 5.96875 -18.363281 5.75 -17.867188 5.3125 -17.453125 C 4.875 -17.046875 4.347656 -16.84375 3.734375 -16.84375 Z M 3.734375 -16.84375 "/></g></g></g><g fill="#000000" fill-opacity="1"><g transform="translate(60.39512, 27.873197)"><g><path d="M 1.65625 5.59375 L 1.65625 -14.921875 L 5.734375 -14.921875 L 5.734375 -12.40625 L 5.90625 -12.40625 C 6.09375 -12.8125 6.359375 -13.222656 6.703125 -13.640625 C 7.046875 -14.054688 7.5 -14.40625 8.0625 -14.6875 C 8.625 -14.96875 9.320312 -15.109375 10.15625 -15.109375 C 11.25 -15.109375 12.25 -14.820312 13.15625 -14.25 C 14.070312 -13.6875 14.804688 -12.835938 15.359375 -11.703125 C 15.921875 -10.566406 16.203125 -9.144531 16.203125 -7.4375 C 16.203125 -5.769531 15.929688 -4.363281 15.390625 -3.21875 C 14.847656 -2.082031 14.117188 -1.21875 13.203125 -0.625 C 12.296875 -0.0390625 11.273438 0.25 10.140625 0.25 C 9.335938 0.25 8.65625 0.117188 8.09375 -0.140625 C 7.539062 -0.410156 7.085938 -0.75 6.734375 -1.15625 C 6.378906 -1.5625 6.101562 -1.972656 5.90625 -2.390625 L 5.78125 -2.390625 L 5.78125 5.59375 Z M 5.703125 -7.453125 C 5.703125 -6.128906 5.972656 -5.0625 6.515625 -4.25 C 7.066406 -3.445312 7.84375 -3.046875 8.84375 -3.046875 C 9.851562 -3.046875 10.625 -3.453125 11.15625 -4.265625 C 11.695312 -5.085938 11.96875 -6.148438 11.96875 -7.453125 C 11.96875 -8.753906 11.703125 -9.804688 11.171875 -10.609375 C 10.640625 -11.410156 9.863281 -11.8125 8.84375 -11.8125 C 7.832031 -11.8125 7.054688 -11.414062 6.515625 -10.625 C 5.972656 -9.84375 5.703125 -8.785156 5.703125 -7.453125 Z M 5.703125 -7.453125 "/></g></g></g><g fill="#000000" fill-opacity="1"><g transform="translate(77.685029, 27.873197)"><g><path d="M 8.453125 0.296875 C 6.921875 0.296875 5.597656 -0.015625 4.484375 -0.640625 C 3.378906 -1.265625 2.53125 -2.148438 1.9375 -3.296875 C 1.34375 -4.453125 1.046875 -5.816406 1.046875 -7.390625 C 1.046875 -8.921875 1.34375 -10.265625 1.9375 -11.421875 C 2.53125 -12.585938 3.367188 -13.492188 4.453125 -14.140625 C 5.546875 -14.785156 6.820312 -15.109375 8.28125 -15.109375 C 9.59375 -15.109375 10.773438 -14.828125 11.828125 -14.265625 C 12.890625 -13.710938 13.734375 -12.875 14.359375 -11.75 C 14.984375 -10.625 15.296875 -9.21875 15.296875 -7.53125 L 15.296875 -6.40625 L 5.140625 -6.40625 L 5.140625 -6.390625 C 5.140625 -5.273438 5.441406 -4.394531 6.046875 -3.75 C 6.660156 -3.113281 7.484375 -2.796875 8.515625 -2.796875 C 9.210938 -2.796875 9.8125 -2.941406 10.3125 -3.234375 C 10.8125 -3.523438 11.164062 -3.957031 11.375 -4.53125 L 15.203125 -4.265625 C 14.910156 -2.878906 14.171875 -1.769531 12.984375 -0.9375 C 11.804688 -0.113281 10.296875 0.296875 8.453125 0.296875 Z M 5.140625 -8.96875 L 11.40625 -8.96875 C 11.394531 -9.851562 11.109375 -10.582031 10.546875 -11.15625 C 9.984375 -11.726562 9.25 -12.015625 8.34375 -12.015625 C 7.425781 -12.015625 6.671875 -11.71875 6.078125 -11.125 C 5.492188 -10.53125 5.179688 -9.8125 5.140625 -8.96875 Z M 5.140625 -8.96875 "/></g></g></g><g fill="#000000" fill-opacity="1"><g transform="translate(94.023559, 27.873197)"><g><path d="M 14.0625 -10.65625 L 10.265625 -10.421875 C 10.171875 -10.898438 9.910156 -11.3125 9.484375 -11.65625 C 9.066406 -12 8.5 -12.171875 7.78125 -12.171875 C 7.132812 -12.171875 6.585938 -12.035156 6.140625 -11.765625 C 5.703125 -11.503906 5.488281 -11.148438 5.5 -10.703125 C 5.488281 -10.347656 5.625 -10.046875 5.90625 -9.796875 C 6.195312 -9.546875 6.691406 -9.347656 7.390625 -9.203125 L 10.09375 -8.65625 C 12.957031 -8.070312 14.394531 -6.726562 14.40625 -4.625 C 14.40625 -3.644531 14.117188 -2.785156 13.546875 -2.046875 C 12.972656 -1.304688 12.1875 -0.726562 11.1875 -0.3125 C 10.1875 0.09375 9.046875 0.296875 7.765625 0.296875 C 5.785156 0.296875 4.207031 -0.113281 3.03125 -0.9375 C 1.863281 -1.769531 1.179688 -2.898438 0.984375 -4.328125 L 5.0625 -4.53125 C 5.1875 -3.925781 5.484375 -3.46875 5.953125 -3.15625 C 6.421875 -2.84375 7.023438 -2.6875 7.765625 -2.6875 C 8.492188 -2.6875 9.078125 -2.828125 9.515625 -3.109375 C 9.960938 -3.398438 10.191406 -3.765625 10.203125 -4.203125 C 10.179688 -4.941406 9.539062 -5.4375 8.28125 -5.6875 L 5.703125 -6.203125 C 2.816406 -6.773438 1.378906 -8.195312 1.390625 -10.46875 C 1.378906 -11.90625 1.953125 -13.035156 3.109375 -13.859375 C 4.265625 -14.691406 5.796875 -15.109375 7.703125 -15.109375 C 9.585938 -15.109375 11.070312 -14.707031 12.15625 -13.90625 C 13.238281 -13.113281 13.875 -12.03125 14.0625 -10.65625 Z M 14.0625 -10.65625 "/></g></g></g></svg>